<svg width="250" height="250" viewBox="0 0 250 250" fill="none" xmlns="http://www.w3.org/2000/svg">
<path fill-rule="evenodd" clip-rule="evenodd" d="M46 131C46 128.239 48.2386 126 51 126H199C201.761 126 204 128.239 204 131V133C204 135.761 201.761 138 199 138H189.239C187.102 150.492 176.221 160 163.119 160C150.018 160 139.137 150.492 137 138H112.239C110.102 150.492 99.2211 160 86.1195 160C73.0179 160 62.1369 150.492 60 138H51C48.2386 138 46 135.761 46 133V131Z" fill="#F5F5F5"/>
<path d="M68 119L69.41 117.59L63.83 112H76V110H63.83L69.42 104.42L68 103L60 111L68 119Z" fill="#F5F5F5"/>
</svg>
