<svg width="250" height="100" viewBox="0 0 250 100" fill="none" xmlns="http://www.w3.org/2000/svg">
<path fill-rule="evenodd" clip-rule="evenodd" d="M46 53C46 50.2386 48.2386 48 51 48H199C201.761 48 204 50.2386 204 53V55C204 57.7614 201.761 60 199 60H189.239C187.102 72.4922 176.221 82 163.119 82C150.018 82 139.137 72.4922 137 60H112.239C110.102 72.4922 99.2211 82 86.1195 82C73.0179 82 62.1369 72.4922 60 60H51C48.2386 60 46 57.7614 46 55V53Z" fill="#F5F5F5"/>
<path d="M60.4141 38V26.5781H62.8359V36H67.4688V38H60.4141Z" fill="#F5F5F5"/>
<path d="M182.078 31.6484H182.859C183.625 31.6484 184.19 31.5208 184.555 31.2656C184.919 31.0104 185.102 30.6094 185.102 30.0625C185.102 29.5208 184.914 29.1354 184.539 28.9062C184.169 28.6771 183.594 28.5625 182.812 28.5625H182.078V31.6484ZM182.078 33.6172V38H179.656V26.5781H182.984C184.536 26.5781 185.685 26.862 186.43 27.4297C187.174 27.9922 187.547 28.849 187.547 30C187.547 30.6719 187.362 31.2708 186.992 31.7969C186.622 32.3177 186.099 32.7266 185.422 33.0234C187.141 35.5911 188.26 37.25 188.781 38H186.094L183.367 33.6172H182.078Z" fill="#F5F5F5"/>
</svg>
