<svg width="250" height="250" viewBox="0 0 250 250" fill="none" xmlns="http://www.w3.org/2000/svg">
<path fill-rule="evenodd" clip-rule="evenodd" d="M46 127C46 124.239 48.2386 122 51 122H199C201.761 122 204 124.239 204 127V129C204 131.761 201.761 134 199 134H189.239C187.102 146.492 176.221 156 163.119 156C150.018 156 139.137 146.492 137 134H112.239C110.102 146.492 99.2211 156 86.1195 156C73.0179 156 62.1369 146.492 60 134H51C48.2386 134 46 131.761 46 129V127Z" fill="#F5F5F5"/>
<path d="M60.4141 112V100.578H62.8359V110H67.4688V112H60.4141Z" fill="#F5F5F5"/>
<path d="M182.078 105.648H182.859C183.625 105.648 184.19 105.521 184.555 105.266C184.919 105.01 185.102 104.609 185.102 104.062C185.102 103.521 184.914 103.135 184.539 102.906C184.169 102.677 183.594 102.562 182.812 102.562H182.078V105.648ZM182.078 107.617V112H179.656V100.578H182.984C184.536 100.578 185.685 100.862 186.43 101.43C187.174 101.992 187.547 102.849 187.547 104C187.547 104.672 187.362 105.271 186.992 105.797C186.622 106.318 186.099 106.727 185.422 107.023C187.141 109.591 188.26 111.25 188.781 112H186.094L183.367 107.617H182.078Z" fill="#F5F5F5"/>
</svg>
