<svg width="250" height="100" viewBox="0 0 250 100" fill="none" xmlns="http://www.w3.org/2000/svg">
<path fill-rule="evenodd" clip-rule="evenodd" d="M46 57C46 54.2386 48.2386 52 51 52H199C201.761 52 204 54.2386 204 57V59C204 61.7614 201.761 64 199 64H189.239C187.102 76.4922 176.221 86 163.119 86C150.018 86 139.137 76.4922 137 64H112.239C110.102 76.4922 99.2211 86 86.1195 86C73.0179 86 62.1369 76.4922 60 64H51C48.2386 64 46 61.7614 46 59V57Z" fill="#F5F5F5"/>
<path d="M68 45L69.41 43.59L63.83 38H76V36H63.83L69.42 30.42L68 29L60 37L68 45Z" fill="#F5F5F5"/>
</svg>
